<svg width="20" height="20" viewBox="0 0 20 20" fill="none" xmlns="http://www.w3.org/2000/svg">
<path fill-rule="evenodd" clip-rule="evenodd" d="M20 10C20 15.5228 15.5228 20 10 20C8.40032 20 6.88837 19.6244 5.54753 18.9565C5.19121 18.7791 4.78393 18.72 4.39939 18.8229L2.17335 19.4185C1.20701 19.677 0.322954 18.793 0.581511 17.8267L1.17712 15.6006C1.28001 15.2161 1.22094 14.8088 1.04346 14.4525C0.375616 13.1116 0 11.5997 0 10C0 4.47715 4.47715 0 10 0C15.5228 0 20 4.47715 20 10ZM13.5303 7.46967C13.8232 7.76256 13.8232 8.23744 13.5303 8.53033L9.53033 12.5303C9.24165 12.819 8.77511 12.8238 8.4806 12.541L6.4806 10.621C6.18179 10.3342 6.1721 9.85941 6.45896 9.5606C6.74582 9.26179 7.22059 9.2521 7.5194 9.53896L8.98929 10.9501L12.4697 7.46967C12.7626 7.17678 13.2374 7.17678 13.5303 7.46967Z" fill="white"/>
</svg>
