<svg width="22" height="11" viewBox="0 0 22 11" fill="none" xmlns="http://www.w3.org/2000/svg">
<path d="M1.43954 0.454744C1.27638 0.0740213 0.835466 -0.102342 0.454744 0.0608243C0.0740213 0.223991 -0.102342 0.6649 0.0608243 1.04562L1.43954 0.454744ZM14.3374 7.07888L14.0627 6.381L14.3374 7.07888ZM7.79163 7.48792C8.01754 7.14074 7.91922 6.67615 7.57203 6.45025C7.22485 6.22434 6.76026 6.32266 6.53436 6.66984L7.79163 7.48792ZM5.12154 8.84114C4.89564 9.18833 4.99396 9.65292 5.34114 9.87882C5.68833 10.1047 6.15292 10.0064 6.37882 9.65922L5.12154 8.84114ZM21.4395 1.04562C21.6027 0.6649 21.4263 0.223991 21.0456 0.0608243C20.6649 -0.102342 20.224 0.0740214 20.0608 0.454744L21.4395 1.04562ZM17.7502 4.87902L17.2369 4.33217V4.33217L17.7502 4.87902ZM18.7199 6.90935C19.0127 7.20224 19.4876 7.20224 19.7805 6.90935C20.0734 6.61646 20.0734 6.14158 19.7805 5.84869L18.7199 6.90935ZM10.0002 10.2502C10.0002 10.6644 10.336 11.0002 10.7502 11.0002C11.1644 11.0002 11.5002 10.6644 11.5002 10.2502H10.0002ZM15.1215 9.65922C15.3475 10.0064 15.812 10.1047 16.1592 9.87882C16.5064 9.65292 16.6047 9.18833 16.3788 8.84114L15.1215 9.65922ZM4.28051 5.40935C4.57341 5.11646 4.57341 4.64158 4.28051 4.34869C3.98762 4.0558 3.51275 4.0558 3.21985 4.34869L4.28051 5.40935ZM1.71985 5.84869C1.42696 6.14158 1.42696 6.61646 1.71985 6.90935C2.01275 7.20224 2.48762 7.20224 2.78051 6.90935L1.71985 5.84869ZM10.7502 7.00018C7.52629 7.00018 5.21151 5.39479 3.67478 3.73984C2.90664 2.91261 2.34343 2.08302 1.97278 1.46032C1.78787 1.14968 1.65205 0.892499 1.56358 0.715554C1.51937 0.627138 1.48707 0.55893 1.46646 0.514297C1.45615 0.491986 1.44877 0.475584 1.4443 0.465513C1.44206 0.460478 1.44054 0.457028 1.43975 0.455215C1.43936 0.454309 1.43914 0.453812 1.43911 0.453731C1.43909 0.45369 1.43912 0.453754 1.43919 0.453923C1.43923 0.454007 1.43931 0.454212 1.43933 0.454254C1.43943 0.454486 1.43954 0.454744 0.750183 0.750183C0.0608243 1.04562 0.0609579 1.04593 0.061103 1.04627C0.0611668 1.04642 0.0613239 1.04679 0.0614517 1.04708C0.0617075 1.04768 0.06201 1.04838 0.0623592 1.04919C0.0630576 1.0508 0.063943 1.05284 0.065016 1.0553C0.0671619 1.06021 0.0700583 1.0668 0.0737091 1.07501C0.0810104 1.09143 0.0913328 1.11434 0.104709 1.1433C0.131456 1.2012 0.170446 1.28338 0.221941 1.38637C0.324875 1.59224 0.478118 1.88194 0.683838 2.22755C1.09443 2.91735 1.71873 3.83775 2.57559 4.76052C4.28886 6.60558 6.97407 8.50018 10.7502 8.50018V7.00018ZM14.0627 6.381C13.0923 6.76295 11.9919 7.00018 10.7502 7.00018V8.50018C12.1884 8.50018 13.4748 8.22442 14.6121 7.77677L14.0627 6.381ZM6.53436 6.66984L5.12154 8.84114L6.37882 9.65922L7.79163 7.48792L6.53436 6.66984ZM20.7502 0.750183C20.0608 0.454744 20.0609 0.454593 20.0609 0.45445C20.061 0.454414 20.061 0.454279 20.0611 0.454206C20.0611 0.45406 20.0612 0.453947 20.0612 0.453866C20.0613 0.453706 20.0613 0.453677 20.0612 0.453778C20.0612 0.453981 20.0608 0.454705 20.0603 0.455941C20.0592 0.458413 20.0572 0.462932 20.0543 0.469424C20.0485 0.482409 20.0391 0.503275 20.026 0.531429C19.9997 0.587752 19.9587 0.673137 19.9028 0.782852C19.7908 1.00245 19.6192 1.31849 19.3856 1.69339C18.9171 2.44534 18.2064 3.42215 17.2369 4.33217L18.2635 5.42587C19.3525 4.40367 20.1419 3.31606 20.6587 2.48665C20.9178 2.07086 21.1102 1.71699 21.239 1.46434C21.3035 1.33793 21.3522 1.23661 21.3855 1.16526C21.4021 1.12957 21.4149 1.10136 21.4239 1.08122C21.4284 1.07116 21.4319 1.0631 21.4345 1.05715C21.4358 1.05417 21.4369 1.05171 21.4377 1.04979C21.4382 1.04883 21.4385 1.048 21.4388 1.0473C21.439 1.04695 21.4391 1.04664 21.4392 1.04636C21.4393 1.04622 21.4394 1.04604 21.4394 1.04597C21.4395 1.04579 21.4395 1.04562 20.7502 0.750183ZM17.2369 4.33217C16.3779 5.13843 15.3241 5.88451 14.0627 6.381L14.6121 7.77677C16.0857 7.19674 17.2968 6.3332 18.2635 5.42587L17.2369 4.33217ZM17.2199 5.40935L18.7199 6.90935L19.7805 5.84869L18.2805 4.34869L17.2199 5.40935ZM10.0002 7.75018V10.2502H11.5002V7.75018H10.0002ZM13.7087 7.48792L15.1215 9.65922L16.3788 8.84114L14.966 6.66984L13.7087 7.48792ZM3.21985 4.34869L1.71985 5.84869L2.78051 6.90935L4.28051 5.40935L3.21985 4.34869Z" fill="#BFBFBF"/>
</svg>
