<svg width="24" height="24" viewBox="0 0 24 24" fill="none" xmlns="http://www.w3.org/2000/svg">
<g clip-path="url(#clip0_1952_3266)">
<path d="M0 11.52C0 6.0894 0 3.37413 1.68707 1.68707C3.37413 0 6.0894 0 11.52 0H12.48C17.9106 0 20.6259 0 22.313 1.68707C24 3.37413 24 6.0894 24 11.52V12.48C24 17.9106 24 20.6259 22.313 22.313C20.6259 24 17.9106 24 12.48 24H11.52C6.0894 24 3.37413 24 1.68707 22.313C0 20.6259 0 17.9106 0 12.48V11.52Z" fill="#0077FF"/>
<path d="M12.72 16.99C7.24995 16.99 4.13 13.24 4 7H6.74C6.83 11.58 8.84995 13.52 10.45 13.92V7H13.0301V10.95C14.6101 10.78 16.2698 8.98 16.8299 7H19.4099C18.9799 9.44 17.1799 11.24 15.8999 11.98C17.1799 12.58 19.23 14.15 20.01 16.99H17.1699C16.5599 15.09 15.0401 13.62 13.0301 13.42V16.99H12.72Z" fill="white"/>
</g>
<defs>
<clipPath id="clip0_1952_3266">
<rect width="24" height="24" fill="white"/>
</clipPath>
</defs>
</svg>
